<?xml version="1.0" encoding="utf-8"?>
<!-- Generator: Adobe Illustrator 17.1.0, SVG Export Plug-In . SVG Version: 6.00 Build 0)  -->
<!DOCTYPE svg PUBLIC "-//W3C//DTD SVG 1.1//EN" "http://www.w3.org/Graphics/SVG/1.1/DTD/svg11.dtd">
<svg version="1.1" id="Layer_1" xmlns="http://www.w3.org/2000/svg" xmlns:xlink="http://www.w3.org/1999/xlink" x="0px" y="0px"
	 viewBox="-0.9 -0.9 102 45.9" enable-background="new -0.9 -0.9 102 45.9" xml:space="preserve">
<g>
	<g>
		<path fill="#210061" d="M38.3,44.4c-2.4,0-5.6-0.9-7.1-2.8c-1.1-1.4-1.5-2.8-1.6-4.6h5.2c0.1,1.5,1.7,2.7,3.6,2.7
			c1.6,0,3.1-0.8,3.1-2.2c0-0.2,0-0.8-0.3-1.1c-0.9-1-4.9-1.7-6-2.1c-2.8-1-4.8-3-4.8-6.1c0-3.9,3.9-6.6,7.9-6.6
			c3.7,0,7.6,2.8,7.7,6.5h-5c-0.3-1.3-1.6-1.8-2.8-1.8c-1.1,0-2.7,0.5-2.7,1.8c0,1.1,1.6,1.4,2.5,1.8c0.6,0.2,1.2,0.4,1.8,0.6
			c3.3,1,6.7,2.1,6.7,6.4C46.6,41.4,42.6,44.4,38.3,44.4z"/>
		<path fill="#210061" d="M22.7,43.7V22.3h5.1v21.3H22.7z"/>
		<path fill="#210061" d="M48.6,43.7V22.3h5.1v21.3H48.6z"/>
		<path fill="#210061" d="M67.3,44.4c-6.2,0-11.4-5.1-11.4-11.3c0-6.3,5.1-11.4,11.4-11.4s11.3,5.1,11.3,11.3
			C78.6,39.4,73.8,44.4,67.3,44.4z M67.3,26.3c-3.6,0-6.3,3.3-6.3,6.7c0,3.6,2.6,6.6,6.3,6.6c3.6,0,6.2-3.1,6.2-6.6
			C73.5,29.6,70.9,26.3,67.3,26.3z"/>
		<path fill="#210061" d="M94.5,43.7V33.1c0-3-0.5-6.8-4.3-6.8c-1.3,0-2.7,0.8-3.5,1.9c-0.9,1.3-0.9,3.8-0.9,5.3v10.1h-5.1V22.3h4.7
			v1.8c1.7-1.7,3.4-2.6,5.8-2.6c2.3,0,4.9,1.2,6.4,3c1.7,2,2,4.8,2,7.3v11.8H94.5z"/>
		<polyline fill="#210061" points="-0.4,22.3 5.2,22.3 10.3,36.5 10.4,36.5 15.3,22.3 20.9,22.3 12.2,43.7 8.2,43.7 -0.4,22.3 		"/>
	</g>
	<g>
		<polygon fill="#8144AE" points="22.7,0 22.7,18.9 48.6,9.5 		"/>
		<polygon fill="#8144AE" points="48.6,0 48.6,18.9 74.5,9.5 		"/>
	</g>
</g>
</svg>
