<svg xmlns="http://www.w3.org/2000/svg" width="564.035" height="564.035" viewBox="0 0 564.035 564.035"><g><path d="M169.114 101.082v362.835h90.71v-56.693h45.353v56.693h90.714V101.082H169.115zm67.87 328.82h-45.355v-22.678h45.353V429.9zm0-45.355h-45.355V361.87h45.353v22.677zm0-45.355h-45.355v-22.677h45.353v22.677zm0-45.354h-45.355V271.16h45.353v22.678zm0-45.354h-45.355v-22.677h45.353v22.677zm0-45.355h-45.355V180.45h45.353v22.677zm0-45.355h-45.355v-22.677h45.353v22.677zm68.193 226.772h-45.354V361.87h45.354v22.677zm0-45.355h-45.354v-22.677h45.354v22.677zm0-45.354h-45.354V271.16h45.354v22.678zm0-45.354h-45.354v-22.677h45.354v22.677zm0-45.355h-45.354V180.45h45.354v22.677zm0-45.355h-45.354v-22.677h45.354v22.677zm68.03 272.126h-45.353v-22.676h45.354V429.9zm0-45.353h-45.353V361.87h45.354v22.677zm0-45.355h-45.353v-22.677h45.354v22.677zm0-45.354h-45.353V271.16h45.354v22.678zm0-45.354h-45.353v-22.677h45.354v22.677zm0-45.355h-45.353V180.45h45.354v22.677zm0-45.355h-45.353v-22.677h45.354v22.677z"/><path fill="none" d="M-.965-.965h565v565h-565z"/></g></svg>